<svg xmlns="http://www.w3.org/2000/svg" xmlns:xlink="http://www.w3.org/1999/xlink" xmlns:lucid="lucid" width="180" height="180"><g transform="translate(1100 -460)" lucid:page-tab-id="o7h4sFdt2RE7"><path d="M-1100 466a6 6 0 0 1 6-6h168a6 6 0 0 1 6 6v168a6 6 0 0 1-6 6h-168a6 6 0 0 1-6-6z" fill="none"/><use xlink:href="#a" transform="matrix(1,0,0,1,-1100,460) translate(9.717777777777869 97.39555555555555)"/><defs><path fill="#fff" d="M336-738c110 0 176 41 235 64 9 4 22-17 33-7l-70 151c-8-4-16-4-12-17 0-53-104-91-192-91-113 0-150 46-150 108 0 162 433 17 433 314C613-81 505 10 347 10 161 10 80-79 69-78c-10 2-17 12-27 3l73-145c10 2 12 9 10 21 0 53 122 109 223 109 87 0 147-37 147-120 0-182-429-31-429-316 0-136 112-212 270-212" id="b"/><path fill="#fff" d="M333-590l-96 294h188c-31-97-58-199-92-294zm124 392H204c-17 56-39 107-53 166 0 11 8 17 17 20V0H18v-12c17-2 25-7 37-44l204-614c6-15 11-45-12-46v-12h189v12c-20 4-20 27-13 47L623-49c5 16 11 37 27 37V0H488v-12c29-3 17-38 11-58" id="c"/><path fill="#fff" d="M80-50v-628c0-30-13-38-28-38v-12h196v12c-27 7-14 21-6 43 48 136 95 276 147 409l159-421c4-16 4-29-14-31v-12h192v12c-15 0-28 8-28 38v628c0 30 13 38 28 38V0H562v-12c15 0 28-8 28-38-1-166 3-337-2-499L388 0c-69-183-134-369-206-549v499c0 30 13 38 28 38V0H52v-12c15 0 28-8 28-38" id="d"/><g id="a"><use transform="matrix(0.05777777777777771,0,0,0.05777777777777771,0,0)" xlink:href="#b"/><use transform="matrix(0.05777777777777771,0,0,0.05777777777777771,38.537777777777734,0)" xlink:href="#c"/><use transform="matrix(0.05777777777777771,0,0,0.05777777777777771,77.07555555555547,0)" xlink:href="#d"/><use transform="matrix(0.05777777777777771,0,0,0.05777777777777771,122.02666666666653,0)" xlink:href="#c"/></g></defs></g></svg>